<?xml version="1.0" standalone="no"?>
<!DOCTYPE svg PUBLIC "-//W3C//DTD SVG 20010904//EN"
 "http://www.w3.org/TR/2001/REC-SVG-20010904/DTD/svg10.dtd">
<svg version="1.0" xmlns="http://www.w3.org/2000/svg"
 width="802.000000pt" height="763.000000pt" viewBox="0 0 802.000000 763.000000"
 preserveAspectRatio="xMidYMid meet">
<metadata>
Created by potrace 1.16, written by Peter Selinger 2001-2019
</metadata>
<g transform="translate(0.000000,763.000000) scale(0.100000,-0.100000)"
fill="#0065A1" stroke="none">
<path d="M2010 7620 l-2005 -5 0 -87 -1 -88 1978 0 1977 0 27 87 26 86 27 -84
27 -84 1977 -3 1977 -2 0 90 0 90 -2002 2 c-1102 2 -2905 1 -4008 -2z"/>
<path d="M5 7150 l0 -100 1914 2 1914 3 31 98 32 97 -1946 0 -1945 0 0 -100z"/>
<path d="M4156 7173 c13 -43 27 -88 30 -100 l6 -23 1914 0 1914 0 0 100 0 100
-1944 0 -1944 0 24 -77z"/>
<path d="M3891 6620 c-67 -206 -147 -451 -178 -545 -30 -93 -63 -195 -74 -225
-10 -30 -47 -145 -83 -255 -35 -110 -112 -346 -170 -525 -58 -179 -121 -376
-141 -437 l-36 -113 -1302 -2 -1301 -3 103 -75 c56 -41 153 -111 214 -155 62
-44 146 -105 187 -136 41 -30 125 -91 185 -135 61 -43 117 -84 125 -91 8 -7
126 -92 262 -190 316 -228 510 -369 622 -452 49 -36 100 -73 112 -81 19 -13
217 -157 277 -202 17 -12 14 -25 -47 -208 -35 -107 -117 -357 -181 -555 -64
-198 -175 -540 -247 -760 -279 -860 -308 -949 -308 -957 0 -5 44 25 99 65 54
39 136 99 182 133 46 33 207 150 357 260 151 109 311 225 355 258 78 56 346
250 700 509 89 64 198 142 242 173 44 31 99 72 122 91 l43 34 102 -74 c214
-154 776 -562 963 -698 66 -49 224 -163 350 -255 127 -92 264 -193 306 -223
42 -31 120 -87 174 -126 53 -38 122 -89 153 -112 31 -23 58 -41 59 -39 2 2
-118 375 -366 1136 -245 755 -344 1060 -388 1194 -30 93 -44 151 -37 153 10 3
614 440 839 606 55 41 242 177 415 302 173 126 421 305 550 399 129 93 248
180 263 193 l29 23 -1306 0 c-1090 0 -1306 2 -1306 13 0 8 -99 320 -221 693
-121 373 -274 846 -340 1049 -66 204 -146 449 -178 545 l-58 175 -122 -375z
m-751 -2303 c0 -2 -13 -45 -30 -97 -16 -52 -26 -98 -22 -101 4 -4 149 -109
322 -235 173 -125 356 -257 405 -294 161 -118 193 -140 200 -140 3 0 73 49
153 108 81 60 221 162 312 227 91 66 215 155 275 200 61 45 128 94 151 110
l40 29 -29 93 c-17 51 -28 96 -25 98 3 3 434 4 958 3 l953 -3 -288 -210 c-159
-115 -314 -228 -345 -250 -50 -35 -299 -216 -735 -533 -71 -53 -148 -108 -170
-124 -22 -16 -65 -47 -95 -70 -30 -22 -63 -46 -72 -53 -17 -11 -16 -18 16
-116 19 -57 89 -273 156 -479 67 -206 171 -528 232 -715 60 -187 138 -425 173
-530 34 -104 61 -191 59 -193 -2 -3 -100 66 -304 216 -140 103 -195 143 -255
186 -33 23 -118 86 -190 138 -71 52 -305 222 -520 378 -214 156 -404 293 -420
306 l-31 23 -70 -52 c-39 -29 -78 -56 -87 -62 -15 -10 -661 -479 -1032 -751
-340 -248 -529 -383 -532 -380 -2 2 54 177 282 876 87 267 289 890 338 1042
23 72 31 108 23 111 -6 3 -67 46 -136 96 -214 155 -389 283 -489 357 -53 39
-109 79 -126 90 -16 10 -32 21 -35 24 -3 3 -79 60 -170 125 -91 65 -196 142
-235 171 -38 28 -171 125 -295 214 -124 90 -227 164 -229 166 -2 2 428 4 957
4 529 0 962 -1 962 -3z"/>
<path d="M5 6760 l0 -100 1851 0 1852 0 10 38 c5 20 19 65 30 100 l20 62
-1882 0 -1881 0 0 -100z"/>
<path d="M4262 6848 c3 -7 17 -52 32 -100 l27 -88 1850 0 1849 0 0 100 0 100
-1881 0 c-1501 0 -1880 -3 -1877 -12z"/>
<path d="M5 6370 l0 -100 1787 0 1787 0 24 78 c14 42 28 87 32 100 l6 22
-1818 0 -1818 0 0 -100z"/>
<path d="M4415 6373 l31 -98 1787 -3 1787 -2 0 100 0 100 -1818 0 -1818 0 31
-97z"/>
<path d="M5 5980 l0 -100 1724 2 1724 3 31 98 32 97 -1756 0 -1755 0 0 -100z"/>
<path d="M4543 5980 l30 -100 1724 0 1723 0 0 100 0 100 -1754 0 -1754 0 31
-100z"/>
<path d="M5 5590 l0 -100 1660 0 1660 0 28 88 c16 48 31 93 33 100 5 9 -337
12 -1688 12 l-1693 0 0 -100z"/>
<path d="M4643 5678 c2 -7 16 -52 31 -100 l27 -88 1659 0 1660 0 0 100 0 100
-1691 0 c-1349 0 -1690 -3 -1686 -12z"/>
<path d="M5 5200 l0 -100 1596 0 1597 0 26 85 c15 47 29 92 32 100 5 13 -185
15 -1622 15 l-1629 0 0 -100z"/>
<path d="M4795 5203 l31 -98 1597 -3 1597 -2 0 100 0 100 -1628 0 -1628 0 31
-97z"/>
<path d="M4 4888 c3 -13 5 -58 5 -101 l1 -77 1531 2 1531 3 29 90 c16 50 29
93 29 98 0 4 -704 7 -1565 7 l-1565 0 4 -22z"/>
<path d="M4923 4810 l30 -100 1534 0 1533 0 0 100 0 100 -1564 0 -1564 0 31
-100z"/>
<path d="M5 4420 l0 -100 274 0 273 0 -137 100 -138 100 -136 0 -136 0 0 -100z"/>
<path d="M7710 4492 c-19 -16 -66 -50 -105 -77 -38 -27 -83 -59 -98 -72 l-29
-23 271 0 271 0 0 100 0 100 -138 0 c-136 0 -138 0 -172 -28z"/>
<path d="M5 4030 l0 -100 538 0 c295 0 537 2 537 4 0 2 -60 47 -134 100 l-134
96 -403 0 -404 0 0 -100z"/>
<path d="M7076 4030 l-139 -100 542 0 541 0 0 100 0 100 -403 0 -402 0 -139
-100z"/>
<path d="M5 3640 l0 -100 810 0 c445 0 805 4 800 8 -6 5 -67 50 -137 100
l-128 92 -672 0 -673 0 0 -100z"/>
<path d="M6545 3645 c-71 -52 -133 -95 -137 -95 -4 0 -8 -3 -8 -7 0 -5 364 -7
810 -5 l810 2 0 100 0 100 -673 0 -673 0 -129 -95z"/>
<path d="M5 3250 l0 -100 1079 0 1079 0 -139 100 -139 100 -940 0 -940 0 0
-100z"/>
<path d="M6005 3254 c-71 -52 -131 -97 -134 -99 -2 -3 480 -5 1072 -5 l1077 0
0 100 0 100 -942 -1 -943 0 -130 -95z"/>
<path d="M5 2857 l0 -102 1215 0 1215 0 26 80 25 80 -32 23 -33 22 -1208 0
-1208 0 0 -103z"/>
<path d="M5572 2938 c-20 -12 -31 -26 -28 -35 3 -7 13 -39 22 -71 9 -31 19
-60 23 -64 4 -4 552 -9 1219 -10 l1212 -3 0 103 0 102 -1207 0 -1208 0 -33
-22z"/>
<path d="M5 2465 l0 -105 1150 0 1151 0 32 98 c18 54 32 101 32 105 0 4 -532
7 -1182 7 l-1183 0 0 -105z"/>
<path d="M5655 2553 c4 -10 20 -56 35 -103 l28 -85 1151 -3 1151 -2 0 105 0
105 -1186 0 c-1126 0 -1186 -1 -1179 -17z"/>
<path d="M5 2075 l0 -105 1087 0 1086 0 31 93 c17 50 31 98 31 105 0 9 -231
12 -1117 12 l-1118 0 0 -105z"/>
<path d="M5785 2162 c3 -9 18 -56 33 -105 l27 -87 1087 0 1088 0 0 105 0 105
-1121 0 c-1053 -1 -1120 -2 -1114 -18z"/>
<path d="M1060 1780 l-1055 -5 0 -98 0 -97 1025 0 1025 0 32 102 c18 56 31
102 30 103 -1 0 -477 -2 -1057 -5z"/>
<path d="M3885 1714 c-55 -41 -118 -88 -139 -105 l-40 -29 304 0 c262 0 302 2
290 14 -41 39 -254 186 -270 186 -10 0 -24 2 -32 4 -7 3 -58 -29 -113 -70z"/>
<path d="M5914 1765 c3 -8 17 -53 31 -100 l26 -85 1025 0 1024 0 0 100 0 100
-1056 0 c-932 0 -1055 -2 -1050 -15z"/>
<path d="M3340 1317 c-58 -42 -118 -88 -135 -102 l-30 -24 838 0 c678 -1 836
1 825 12 -7 7 -65 51 -128 97 l-115 85 -575 5 -575 5 -105 -78z"/>
<path d="M5 1290 l0 -100 960 0 961 0 28 88 c16 48 31 93 33 100 4 9 -198 12
-988 12 l-994 0 0 -100z"/>
<path d="M6067 1293 c18 -54 33 -99 33 -100 0 -2 432 -3 960 -3 l960 0 0 100
0 100 -993 0 -993 0 33 -97z"/>
<path d="M9 948 c0 -29 -2 -74 -3 -100 l-2 -48 897 0 897 0 10 28 c17 44 52
155 52 164 0 4 -416 8 -925 8 l-925 0 -1 -52z"/>
<path d="M2779 909 c-68 -50 -128 -95 -134 -100 -5 -5 521 -9 1370 -8 1301 0
1379 1 1355 17 -13 9 -74 54 -135 99 l-110 82 -1111 1 -1110 0 -125 -91z"/>
<path d="M6194 900 l31 -100 898 0 897 0 0 100 0 100 -929 0 -928 0 31 -100z"/>
<path d="M5 510 l0 -100 835 0 835 0 31 100 32 100 -867 0 -866 0 0 -100z"/>
<path d="M2230 510 l-134 -100 1918 0 1919 0 -124 90 c-68 49 -129 94 -136
100 -8 7 -541 10 -1660 10 l-1648 -1 -135 -99z"/>
<path d="M6293 598 c2 -7 17 -52 33 -100 l28 -88 833 0 833 0 0 100 0 100
-866 0 c-689 0 -865 -3 -861 -12z"/>
<path d="M5 110 l0 -110 4008 0 4007 0 0 110 0 110 -803 0 -804 0 33 -97 c19
-53 32 -98 30 -101 -2 -2 -66 42 -142 97 l-139 101 -2179 0 -2180 0 -40 -28
c-23 -15 -85 -60 -140 -100 -55 -39 -101 -71 -103 -69 -1 2 11 46 27 98 16 52
30 95 30 97 0 1 -361 2 -802 2 l-803 0 0 -110z"/>
</g>
</svg>
